<svg width="70" height="38" viewBox="0 0 70 38" xmlns="http://www.w3.org/2000/svg"><path fill-rule="evenodd" clip-rule="evenodd" d="m.9 31.1 13.8-18.6 3.7 2 9-14.5L33 6.7 35 5l8.1 10.2 5.7-6.8 16 22.7-15.4-19.3-2.3 8.1 2.1 6.4-13.7-19-.2 6.5 7.8 17.3L28.5 4.3l4.2 14.5-5.9-14-3.2 9.3.6-6.1-8.1 22 1-9.3-3.4-3.7L.9 31.1Z"/><path fill-rule="evenodd" clip-rule="evenodd" d="M69.4 34C47.6 16.4 13.7 40.6 0 31.3c15 13.2 50.3-9.1 69.4 2.7Z"/><path fill-rule="evenodd" clip-rule="evenodd" d="M70 35.4c-17.1-10.9-42.5 4.3-55.6.8 14.1 6.8 40.4-8.4 55.6-.8Z"/></svg>